<svg width="546" height="88" viewBox="0 0 546 88" fill="none" xmlns="http://www.w3.org/2000/svg">
<path d="M150.323 76C145.954 76 142.035 75.2333 138.565 73.6999C135.096 72.1026 132.333 69.9622 130.277 67.2787C128.285 64.5952 127.193 61.6242 127 58.3657H140.589C140.846 60.4103 141.842 62.1034 143.577 63.4451C145.376 64.7869 147.593 65.4578 150.227 65.4578C152.797 65.4578 154.789 64.9466 156.203 63.9243C157.68 62.9021 158.419 61.5923 158.419 59.995C158.419 58.2699 157.52 56.992 155.721 56.1614C153.986 55.2669 151.191 54.3085 147.336 53.2863C143.352 52.3279 140.075 51.3375 137.505 50.3153C134.999 49.293 132.815 47.7276 130.951 45.6192C129.152 43.5107 128.253 40.6675 128.253 37.0895C128.253 34.1505 129.088 31.467 130.759 29.0391C132.494 26.6112 134.935 24.6944 138.083 23.2888C141.296 21.8831 145.055 21.1803 149.36 21.1803C155.721 21.1803 160.797 22.7776 164.587 25.9723C168.378 29.103 170.466 33.3518 170.852 38.7188H157.937C157.745 36.6103 156.845 34.9491 155.239 33.7352C153.697 32.4573 151.609 31.8184 148.974 31.8184C146.533 31.8184 144.637 32.2657 143.288 33.1601C142.003 34.0546 141.36 35.3005 141.36 36.8979C141.36 38.6868 142.26 40.0605 144.059 41.0189C145.858 41.9134 148.653 42.8399 152.444 43.7982C156.299 44.7566 159.479 45.747 161.985 46.7692C164.491 47.7915 166.643 49.3888 168.443 51.5612C170.306 53.6696 171.27 56.4809 171.334 59.995C171.334 63.0618 170.466 65.8092 168.732 68.2371C167.061 70.665 164.62 72.5818 161.407 73.9874C158.259 75.3291 154.564 76 150.323 76Z" fill="white"/>
<path d="M212.094 75.1375L193.975 52.5195V75.1375H180.482V4.2169H193.975V44.5649L211.901 22.0429H229.442L205.926 48.686L229.635 75.1375H212.094Z" fill="white"/>
<path d="M241.681 15.7175C239.303 15.7175 237.312 14.9828 235.705 13.5132C234.163 11.9798 233.392 10.095 233.392 7.85877C233.392 5.62253 234.163 3.76965 235.705 2.30012C237.312 0.766708 239.303 0 241.681 0C244.058 0 246.018 0.766708 247.56 2.30012C249.166 3.76965 249.969 5.62253 249.969 7.85877C249.969 10.095 249.166 11.9798 247.56 13.5132C246.018 14.9828 244.058 15.7175 241.681 15.7175ZM248.331 22.0429V75.1375H234.838V22.0429H248.331Z" fill="white"/>
<path d="M273.227 4.2169V75.1375H259.734V4.2169H273.227Z" fill="white"/>
<path d="M298.124 4.2169V75.1375H284.631V4.2169H298.124Z" fill="white"/>
<path d="M327.095 48.5902C327.095 43.0954 328.219 38.3035 330.468 34.2144C332.717 30.0614 335.833 26.8668 339.817 24.6305C343.8 22.3304 348.362 21.1803 353.502 21.1803C360.12 21.1803 365.582 22.8415 369.887 26.1639C374.256 29.4224 377.179 34.0227 378.657 39.9647H364.104C363.333 37.6646 362.016 35.8756 360.153 34.5977C358.353 33.256 356.105 32.5851 353.406 32.5851C349.551 32.5851 346.499 33.9908 344.25 36.802C342.001 39.5494 340.877 43.4788 340.877 48.5902C340.877 53.6377 342.001 57.567 344.25 60.3783C346.499 63.1257 349.551 64.4994 353.406 64.4994C358.867 64.4994 362.433 62.0715 364.104 57.2156H378.657C377.179 62.966 374.256 67.5343 369.887 70.9206C365.518 74.3069 360.056 76 353.502 76C348.362 76 343.8 74.8819 339.817 72.6457C335.833 70.3455 332.717 67.1509 330.468 63.0618C328.219 58.9088 327.095 54.0849 327.095 48.5902Z" fill="white"/>
<path d="M400.107 30.285C401.842 27.4737 404.091 25.2694 406.854 23.6721C409.681 22.0748 412.893 21.2762 416.491 21.2762V35.3644H412.925C408.685 35.3644 405.472 36.3548 403.288 38.3354C401.167 40.3161 400.107 43.7663 400.107 48.686V75.1375H386.614V22.0429H400.107V30.285Z" fill="white"/>
<path d="M420.182 48.3985C420.182 43.0315 421.243 38.2715 423.363 34.1185C425.547 29.9655 428.471 26.7709 432.133 24.5347C435.86 22.2984 440.004 21.1803 444.566 21.1803C448.55 21.1803 452.019 21.979 454.975 23.5763C457.995 25.1736 460.404 27.1862 462.203 29.6141V22.0429H475.792V75.1375H462.203V67.3745C460.468 69.8663 458.059 71.9428 454.975 73.604C451.955 75.2013 448.453 76 444.47 76C439.972 76 435.86 74.8499 432.133 72.5498C428.471 70.2497 425.547 67.0231 423.363 62.8701C421.243 58.6532 420.182 53.8293 420.182 48.3985ZM462.203 48.5902C462.203 45.3317 461.561 42.5523 460.276 40.2522C458.991 37.8882 457.256 36.0992 455.071 34.8852C452.887 33.6074 450.541 32.9685 448.036 32.9685C445.53 32.9685 443.217 33.5755 441.096 34.7894C438.976 36.0034 437.241 37.7923 435.892 40.1564C434.607 42.4565 433.964 45.2039 433.964 48.3985C433.964 51.5931 434.607 54.4044 435.892 56.8323C437.241 59.1963 438.976 61.0172 441.096 62.2951C443.281 63.5729 445.594 64.2119 448.036 64.2119C450.541 64.2119 452.887 63.6049 455.071 62.3909C457.256 61.1131 458.991 59.3241 460.276 57.024C461.561 54.6599 462.203 51.8487 462.203 48.5902Z" fill="white"/>
<path d="M511.523 33.0643H502.174V75.1375H488.489V33.0643H482.417V22.0429H488.489V19.3594C488.489 12.8424 490.352 8.05044 494.079 4.9836C497.805 1.91677 503.427 0.479194 510.945 0.670873V11.9798C507.668 11.9159 505.387 12.459 504.102 13.6091C502.817 14.7591 502.174 16.8356 502.174 19.8386V22.0429H511.523V33.0643Z" fill="white"/>
<path d="M534.049 33.0643V58.7491C534.049 60.538 534.467 61.8478 535.302 62.6784C536.202 63.4451 537.679 63.8285 539.735 63.8285H546V75.1375H537.519C526.146 75.1375 520.46 69.6427 520.46 58.6532V33.0643H514.099V22.0429H520.46V8.91299H534.049V22.0429H546V33.0643H534.049Z" fill="white"/>
<path fill-rule="evenodd" clip-rule="evenodd" d="M42.2666 68.0896L38.251 87.0725L55.1165 82.3267L95.957 33.2561C94.3815 29.474 92.0519 26.3047 89.1641 23.9219L50.7563 70.3821C50.4599 70.7407 50.275 71.1969 50.3755 71.6511C50.6044 72.6847 51.3141 73.5515 52.173 74.6006L52.1731 74.6007L52.1732 74.6009C52.7029 75.2479 53.2894 75.9643 53.8549 76.8319C54.1602 77.3004 54.2258 77.8882 54.0184 78.4075C52.6312 81.8821 49.8736 83.8682 46.6208 84.1967C46.397 84.2193 46.1708 84.1958 45.9563 84.1281C42.1164 82.9172 39.2223 79.4265 41.3444 73.1741C41.4201 72.9511 41.5411 72.7429 41.6928 72.5629L84.9606 21.2064C84.0772 20.7731 83.161 20.3998 82.2157 20.09L42.2666 68.0896ZM103.304 24.4288L99.4319 29.0809C96.7411 21.8146 91.7755 17.2907 86.0633 15.4669L90.4538 10.1917C97.6819 3.54766 109.729 16.8357 103.304 24.4288ZM1.22043 46.0549C12.0517 47.3194 20.0997 50.3634 27.7701 54.4006C29.3784 55.2471 29.2442 57.563 27.5003 58.2327C26.7816 58.5087 26.0773 58.7774 25.3875 59.0405L25.387 59.0407C20.7429 60.8126 16.7543 62.3343 13.4605 64.1373C9.64853 66.224 6.70503 68.7179 4.66389 72.4772C4.65022 72.5024 4.638 72.5284 4.62729 72.5549C3.543 75.2476 3.59773 77.6082 4.81895 79.5849C6.01271 81.5171 8.23601 82.9382 11.1679 83.989C17.0328 86.0911 26.2019 86.8731 37.4478 86.8731V85.3731C26.2064 85.3731 17.2708 84.583 11.674 82.5769C8.87493 81.5737 7.02811 80.3068 6.09505 78.7965C5.19451 77.3389 5.06213 75.5149 6.00279 73.155C7.86697 69.741 10.5532 67.4389 14.1808 65.4531C17.3775 63.7032 21.2573 62.2225 25.9171 60.4441L25.9215 60.4425C26.6099 60.1797 27.3153 59.9105 28.038 59.633C30.9382 58.5193 31.2627 54.5437 28.4687 53.0732C20.6682 48.9675 12.4431 45.8549 1.39437 44.565L1.22043 46.0549Z" fill="#F8B500"/>
<path d="M38.251 87.0725L37.5172 86.9172C37.4629 87.1741 37.5468 87.4406 37.7384 87.62C37.93 87.7994 38.2014 87.8655 38.4541 87.7944L38.251 87.0725ZM42.2666 68.0896L41.6901 67.6099C41.6121 67.7036 41.5581 67.815 41.5328 67.9344L42.2666 68.0896ZM55.1165 82.3267L55.3197 83.0487C55.4657 83.0076 55.5959 82.9232 55.693 82.8065L55.1165 82.3267ZM95.957 33.2561L96.5335 33.7359C96.712 33.5214 96.7567 33.2254 96.6493 32.9677L95.957 33.2561ZM89.1641 23.9219L89.6415 23.3434C89.3222 23.0799 88.8498 23.125 88.5861 23.444L89.1641 23.9219ZM50.7563 70.3821L51.3344 70.86L51.3344 70.86L50.7563 70.3821ZM50.3755 71.6511L51.1078 71.4889L51.1078 71.4889L50.3755 71.6511ZM52.173 74.6006L51.5927 75.0757C51.5979 75.0821 51.6032 75.0883 51.6086 75.0945L52.173 74.6006ZM52.1731 74.6007L52.7492 74.1206C52.7454 74.116 52.7415 74.1114 52.7375 74.1068L52.1731 74.6007ZM52.1732 74.6009L52.7535 74.1257L52.7494 74.1207L52.1732 74.6009ZM53.8549 76.8319L53.2266 77.2414L53.2266 77.2414L53.8549 76.8319ZM54.0184 78.4075L54.715 78.6856L54.715 78.6856L54.0184 78.4075ZM46.6208 84.1967L46.5455 83.4505L46.5454 83.4505L46.6208 84.1967ZM45.9563 84.1281L46.1819 83.4128L46.1819 83.4128L45.9563 84.1281ZM41.3444 73.1741L40.6342 72.933L40.6342 72.933L41.3444 73.1741ZM41.6928 72.5629L42.2663 73.0461L42.2664 73.0461L41.6928 72.5629ZM84.9606 21.2064L85.5342 21.6897C85.6829 21.5131 85.7421 21.278 85.6946 21.0521C85.647 20.8262 85.4982 20.6348 85.2909 20.5331L84.9606 21.2064ZM82.2157 20.09L82.4493 19.3773C82.1571 19.2815 81.836 19.3738 81.6392 19.6102L82.2157 20.09ZM99.4319 29.0809L98.7286 29.3414C98.8216 29.5924 99.0413 29.7749 99.3052 29.8201C99.5691 29.8654 99.8371 29.7665 100.008 29.5607L99.4319 29.0809ZM103.304 24.4288L102.731 23.9444L102.727 23.949L103.304 24.4288ZM86.0633 15.4669L85.4869 14.9871C85.3273 15.1789 85.2735 15.4375 85.3434 15.6769C85.4132 15.9164 85.5976 16.1055 85.8352 16.1814L86.0633 15.4669ZM90.4538 10.1917L89.9463 9.63951C89.9217 9.66208 89.8987 9.68626 89.8774 9.7119L90.4538 10.1917ZM27.7701 54.4006L28.1194 53.7369L28.1194 53.7369L27.7701 54.4006ZM1.22043 46.0549L0.475488 45.9679C0.427456 46.3793 0.722038 46.7518 1.13346 46.7998L1.22043 46.0549ZM27.5003 58.2327L27.2314 57.5325L27.2314 57.5325L27.5003 58.2327ZM25.3875 59.0405L25.1202 58.3398L25.1172 58.3409L25.3875 59.0405ZM25.387 59.0407L25.6543 59.7415L25.6573 59.7403L25.387 59.0407ZM13.4605 64.1373L13.1004 63.4795L13.1004 63.4795L13.4605 64.1373ZM4.66389 72.4772L5.323 72.8351L5.323 72.8351L4.66389 72.4772ZM4.62729 72.5549L3.93159 72.2748L3.93158 72.2748L4.62729 72.5549ZM4.81895 79.5849L5.457 79.1907L4.81895 79.5849ZM11.1679 83.989L10.9148 84.695L10.9148 84.695L11.1679 83.989ZM37.4478 86.8731V87.6231C37.8621 87.6231 38.1978 87.2873 38.1978 86.8731H37.4478ZM37.4478 85.3731H38.1978C38.1978 84.9589 37.8621 84.6231 37.4478 84.6231V85.3731ZM11.674 82.5769L11.927 81.8709L11.927 81.8709L11.674 82.5769ZM6.09505 78.7965L5.457 79.1907L5.457 79.1907L6.09505 78.7965ZM6.00279 73.155L5.34453 72.7956C5.33009 72.822 5.31726 72.8493 5.3061 72.8773L6.00279 73.155ZM14.1808 65.4531L14.5409 66.111L14.5409 66.111L14.1808 65.4531ZM25.9171 60.4441L25.6499 59.7434L25.6497 59.7434L25.9171 60.4441ZM25.9215 60.4425L26.1887 61.1432L26.1889 61.1432L25.9215 60.4425ZM28.038 59.633L28.3069 60.3331L28.3069 60.3331L28.038 59.633ZM28.4687 53.0732L28.1194 53.7369L28.1194 53.7369L28.4687 53.0732ZM1.39437 44.565L1.48134 43.8201C1.28377 43.797 1.08513 43.8534 0.929116 43.9767C0.773102 44.1001 0.672496 44.2805 0.64943 44.478L1.39437 44.565ZM38.9847 87.2277L43.0003 68.2448L41.5328 67.9344L37.5172 86.9172L38.9847 87.2277ZM54.9134 81.6048L38.0478 86.3505L38.4541 87.7944L55.3197 83.0487L54.9134 81.6048ZM95.3805 32.7763L54.54 81.847L55.693 82.8065L96.5335 33.7359L95.3805 32.7763ZM88.6868 24.5003C91.4744 26.8006 93.7332 29.8679 95.2647 33.5445L96.6493 32.9677C95.0299 29.0801 92.6293 25.8088 89.6415 23.3434L88.6868 24.5003ZM51.3344 70.86L89.7422 24.3997L88.5861 23.444L50.1783 69.9043L51.3344 70.86ZM51.1078 71.4889C51.0749 71.3406 51.1236 71.115 51.3344 70.86L50.1783 69.9043C49.7963 70.3664 49.475 71.0532 49.6433 71.8132L51.1078 71.4889ZM52.7533 74.1255C51.8621 73.037 51.2904 72.3135 51.1078 71.4889L49.6433 71.8132C49.9185 73.0559 50.766 74.066 51.5927 75.0757L52.7533 74.1255ZM52.7375 74.1068L52.7374 74.1067L51.6086 75.0945L51.6086 75.0946L52.7375 74.1068ZM52.7494 74.1207L52.7492 74.1206L51.5969 75.0809L51.597 75.081L52.7494 74.1207ZM54.4832 76.4224C53.8926 75.5163 53.2817 74.771 52.7535 74.1258L51.5929 75.0759C52.124 75.7248 52.6861 76.4122 53.2266 77.2414L54.4832 76.4224ZM54.715 78.6856C55.0156 77.9327 54.9177 77.0891 54.4832 76.4224L53.2266 77.2414C53.4028 77.5118 53.436 77.8436 53.3219 78.1294L54.715 78.6856ZM46.6962 84.9429C50.2359 84.5854 53.2274 82.4114 54.715 78.6856L53.3219 78.1294C52.035 81.3528 49.5113 83.151 46.5455 83.4505L46.6962 84.9429ZM45.7308 84.8434C46.0418 84.9415 46.3703 84.9758 46.6962 84.9429L46.5454 83.4505C46.4237 83.4628 46.2999 83.45 46.1819 83.4128L45.7308 84.8434ZM40.6342 72.933C39.5256 76.1993 39.6934 78.8558 40.7491 80.8875C41.8006 82.911 43.6705 84.1937 45.7308 84.8434L46.1819 83.4128C44.4022 82.8516 42.9051 81.7834 42.0801 80.1958C41.2593 78.6163 41.0411 76.4013 42.0546 73.4151L40.6342 72.933ZM41.1192 72.0796C40.9116 72.3261 40.742 72.6154 40.6342 72.933L42.0546 73.4151C42.0982 73.2869 42.1706 73.1598 42.2663 73.0461L41.1192 72.0796ZM84.387 20.7232L41.1192 72.0796L42.2664 73.0461L85.5342 21.6897L84.387 20.7232ZM81.9821 20.8026C82.8942 21.1017 83.7781 21.4617 84.6303 21.8798L85.2909 20.5331C84.3762 20.0844 83.4277 19.698 82.4493 19.3773L81.9821 20.8026ZM42.843 68.5694L82.7922 20.5697L81.6392 19.6102L41.6901 67.6099L42.843 68.5694ZM100.008 29.5607L103.88 24.9086L102.727 23.949L98.8555 28.6011L100.008 29.5607ZM85.8352 16.1814C91.3095 17.9292 96.1111 22.2729 98.7286 29.3414L100.135 28.8205C97.3712 21.3563 92.2416 16.6522 86.2915 14.7525L85.8352 16.1814ZM89.8774 9.7119L85.4869 14.9871L86.6398 15.9467L91.0303 10.6715L89.8774 9.7119ZM103.876 24.9133C107.439 20.7034 105.789 15.0439 102.555 11.4682C100.918 9.65881 98.8029 8.28129 96.5688 7.81155C94.3064 7.33585 91.9462 7.80119 89.9463 9.63951L90.9614 10.7438C92.5755 9.26015 94.4317 8.895 96.2602 9.27945C98.117 9.66987 99.967 10.8432 101.442 12.4744C104.432 15.78 105.594 20.5611 102.731 23.9444L103.876 24.9133ZM28.1194 53.7369C20.3839 49.6655 12.2474 46.5872 1.3074 45.3099L1.13346 46.7998C11.856 48.0517 19.8154 51.0613 27.4208 55.0643L28.1194 53.7369ZM27.7691 58.9328C30.0997 58.0379 30.3125 54.8912 28.1194 53.7369L27.4208 55.0643C28.4443 55.6029 28.3887 57.0881 27.2314 57.5325L27.7691 58.9328ZM25.6548 59.7413C26.3446 59.4781 27.0496 59.2091 27.7691 58.9328L27.2314 57.5325C26.5136 57.8082 25.8101 58.0766 25.1202 58.3398L25.6548 59.7413ZM25.6573 59.7403L25.6578 59.7401L25.1172 58.3409L25.1167 58.3411L25.6573 59.7403ZM13.8207 64.7952C17.0602 63.0219 20.9958 61.5188 25.6543 59.7415L25.1197 58.34C20.49 60.1063 16.4484 61.6467 13.1004 63.4795L13.8207 64.7952ZM5.323 72.8351C7.27605 69.238 10.0941 66.8352 13.8207 64.7952L13.1004 63.4795C9.20296 65.6129 6.13401 68.1977 4.00477 72.1194L5.323 72.8351ZM5.323 72.8351L5.323 72.8351L4.00478 72.1194C3.97743 72.1697 3.95299 72.2216 3.93159 72.2748L5.323 72.8351ZM5.457 79.1907C4.39384 77.4699 4.30162 75.3715 5.323 72.8351L3.93158 72.2748C2.78438 75.1237 2.80163 77.7466 4.1809 79.9791L5.457 79.1907ZM11.4209 83.283C8.5554 82.2559 6.52038 80.9119 5.457 79.1907L4.1809 79.9791C5.50504 82.1224 7.91662 83.6204 10.9148 84.695L11.4209 83.283ZM37.4478 86.1231C26.2042 86.1231 17.1518 85.337 11.4209 83.283L10.9148 84.695C16.9137 86.8451 26.1995 87.6231 37.4478 87.6231V86.1231ZM36.6978 85.3731V86.8731H38.1978V85.3731H36.6978ZM11.4209 83.283C17.1518 85.337 26.2042 86.1231 37.4478 86.1231V84.6231C26.2086 84.6231 17.3898 83.8289 11.927 81.8709L11.4209 83.283ZM5.457 79.1907C6.52038 80.9119 8.55538 82.2559 11.4209 83.283L11.927 81.8709C9.19447 80.8915 7.53584 79.7016 6.7331 78.4023L5.457 79.1907ZM5.3061 72.8773C4.30245 75.3952 4.40001 77.4799 5.457 79.1907L6.7331 78.4023C5.989 77.1979 5.82182 75.6345 6.69948 73.4327L5.3061 72.8773ZM13.8207 64.7952C10.108 66.8275 7.29684 69.2202 5.34453 72.7956L6.66105 73.5144C8.43711 70.2618 10.9983 68.0502 14.5409 66.111L13.8207 64.7952ZM25.6497 59.7434C21.0048 61.5161 17.0717 63.0156 13.8207 64.7952L14.5409 66.111C17.6833 64.3908 21.5098 62.9289 26.1845 61.1449L25.6497 59.7434ZM25.6543 59.7417L25.6499 59.7434L26.1843 61.1449L26.1887 61.1432L25.6543 59.7417ZM27.7691 58.9328C27.0473 59.2101 26.3426 59.479 25.6541 59.7417L26.1889 61.1432C26.8772 60.8805 27.5833 60.611 28.3069 60.3331L27.7691 58.9328ZM28.1194 53.7369C30.3159 54.893 30.0962 58.0392 27.7691 58.9328L28.3069 60.3331C31.7802 58.9993 32.2095 54.1945 28.8181 52.4095L28.1194 53.7369ZM1.3074 45.3099C12.2474 46.5872 20.3839 49.6655 28.1194 53.7369L28.8181 52.4095C20.9525 48.2696 12.6388 45.1227 1.48134 43.8201L1.3074 45.3099ZM1.96537 46.1419L2.13931 44.652L0.64943 44.478L0.475488 45.9679L1.96537 46.1419Z" fill="#F8B500"/>
</svg>
